Handbrake Version: 20250906052339-dddf75f75-makepkg (2025100401)
[21:45:19] gtkgui: Custom Preset: /Custom/NVENC (No Filters)
[21:45:19] Starting work at: Sun Oct  5 21:45:19 2025

[21:45:19] 1 job(s) to process
[21:45:19] json job:
{
    "Audio": {
        "AudioList": [
            {
                "Bitrate": 160,
                "CompressionLevel": -1.0,
                "DRC": 0.0,
                "DitherMethod": "auto",
                "Encoder": "av_aac",
                "Gain": 0.0,
                "Mixdown": "stereo",
                "Name": "Stereo",
                "NormalizeMixLevel": false,
                "PresetEncoder": "av_aac",
                "Quality": -3.0,
                "Samplerate": 0,
                "Track": 0
            }
        ],
        "CopyMask": [
            "copy:aac"
        ],
        "FallbackEncoder": "av_aac"
    },
    "Destination": {
        "AlignAVStart": false,
        "ChapterList": [
            {
                "Duration": {
                    "Hours": 0,
                    "Minutes": 6,
                    "Seconds": 9,
                    "Ticks": 33244920
                },
                "Name": ""
            }
        ],
        "ChapterMarkers": false,
        "File": "/home/sudar/Videos/HandBrake/Every_Jasprit_Bumrah_wicket_at_Cricket_World_Cup_2023 (1).mkv",
        "InlineParameterSets": false,
        "Mux": "mkv",
        "Options": {
            "IpodAtom": false,
            "Optimize": false
        }
    },
    "Filters": {
        "FilterList": [
            {
                "ID": 11,
                "Settings": {
                    "mode": 0
                }
            },
            {
                "ID": 20,
                "Settings": {
                    "crop-bottom": 0,
                    "crop-left": 0,
                    "crop-right": 0,
                    "crop-top": 0,
                    "height": 1080,
                    "width": 1920
                }
            },
            {
                "ID": 28,
                "Settings": {
                    "bottom": "0",
                    "color": "black",
                    "left": "0",
                    "right": "0",
                    "top": "0"
                }
            }
        ]
    },
    "Metadata": {},
    "PAR": {
        "Den": 1,
        "Num": 1
    },
    "SequenceID": 0,
    "Source": {
        "Angle": 0,
        "HWDecode": 0,
        "KeepDuplicateTitles": false,
        "Path": "/home/sudar/Videos/YouTube/Every_Jasprit_Bumrah_wicket_at_Cricket_World_Cup_2023.webm",
        "Range": {
            "End": 1,
            "Start": 1,
            "Type": "chapter"
        },
        "Title": 1
    },
    "Subtitle": {
        "Search": {
            "Burn": true,
            "Default": false,
            "Enable": false,
            "Forced": false
        },
        "SubtitleList": []
    },
    "Video": {
        "AdapterIndex": -1,
        "AsyncDepth": 0,
        "ChromaLocation": 0,
        "ColorInputFormat": 0,
        "ColorMatrix": 1,
        "ColorOutputFormat": 0,
        "ColorPrimaries": 1,
        "ColorRange": 0,
        "ColorTransfer": 1,
        "Encoder": "nvenc_h265",
        "HardwareDecode": 0,
        "Level": "auto",
        "MultiPass": false,
        "Options": "",
        "PasshtruHDRDynamicMetadata": 6,
        "Preset": "slowest",
        "Profile": "auto",
        "Quality": 1.0,
        "Tune": "",
        "Turbo": false
    }
}
[21:45:19] CPU: Intel(R) Xeon(R) W-2135 CPU @ 3.70GHz
[21:45:19]  - logical processor count: 12
[21:45:19] Intel Quick Sync Video support: no
[21:45:19] hb_scan: path=/home/sudar/Videos/YouTube/Every_Jasprit_Bumrah_wicket_at_Cricket_World_Cup_2023.webm, title_index=1
Input #0, matroska,webm, from '/home/sudar/Videos/YouTube/Every_Jasprit_Bumrah_wicket_at_Cricket_World_Cup_2023.webm':
  Metadata:
    ENCODER         : Lavf61.7.100
  Duration: 00:06:09.39, start: 0.000000, bitrate: 1389 kb/s
  Stream #0:0(eng): Video: vp9 (Profile 0), yuv420p(tv, bt709), 1920x1080, SAR 1:1 DAR 16:9, 25 fps, 25 tbr, 1k tbn (default)
      Metadata:
        DURATION        : 00:06:09.360000000
  Stream #0:1(eng): Audio: opus, 48000 Hz, stereo, fltp (default)
      Metadata:
        DURATION        : 00:06:09.388000000
[21:45:19] scan: decoding previews for title 1
[21:45:19] scan: audio 0x1: opus, rate=48000Hz, bitrate=1 English (Opus, 2.0 ch)
[21:45:19] scan: 10 previews, 1920x1080, 25.000 fps, autocrop = 0/0/0/0, aspect 16:9, PAR 1:1, color profile: 1-1-1, chroma location: unspecified
[21:45:19] libhb: scan thread found 1 valid title(s)
[21:45:19] Starting Task: Encoding Pass
[21:45:19] work: skipping crop/scale filter
[21:45:19] job configuration:
[21:45:19]  * source
[21:45:19]    + /home/sudar/Videos/YouTube/Every_Jasprit_Bumrah_wicket_at_Cricket_World_Cup_2023.webm
[21:45:19]    + title 1, chapter(s) 1 to 1
[21:45:19]    + container: matroska,webm
[21:45:19]    + data rate: 1389 kbps
[21:45:19]  * destination
[21:45:19]    + /home/sudar/Videos/HandBrake/Every_Jasprit_Bumrah_wicket_at_Cricket_World_Cup_2023 (1).mkv
[21:45:19]    + container: Matroska (libavformat)
[21:45:19]  * video track
[21:45:19]    + decoder: vp9 8-bit (yuv420p)
[21:45:19]    + filters
[21:45:19]      + Framerate Shaper (mode=0)
[21:45:19]        + frame rate: same as source (around 25.000 fps)
[21:45:19]      + Pad (color=black:top=0:bottom=0:left=0:right=0)
[21:45:19]    + Output geometry
[21:45:19]      + storage dimensions: 1920 x 1080
[21:45:19]      + pixel aspect ratio: 1 : 1
[21:45:19]      + display dimensions: 1920 x 1080
[21:45:19]    + encoder: H.265 (NVEnc)
[21:45:19]      + preset:  slowest
[21:45:19]      + profile: auto
[21:45:19]      + level:   auto
[21:45:19]      + quality: 1.00 (CQ)
[21:45:19]      + color profile: 1-1-1
[21:45:19]      + color range: tv
[21:45:19]      + chroma location: unspecified
[21:45:19]  * audio track 1
[21:45:19]    + name: Stereo
[21:45:19]    + decoder: English (Opus, 2.0 ch) (track 1, id 0x1)
[21:45:19]      + samplerate: 48000 Hz
[21:45:19]    + mixdown: Stereo
[21:45:19]    + encoder: AAC (libavcodec)
[21:45:19]      + bitrate: 160 kbps, samplerate: 48000 Hz
[21:45:19] sync: expecting 9234 video frames
[21:45:19] encavcodecInit: H.265 (Nvidia NVENC)
[21:45:19] encavcodec: encoding at rc=vbr, 1.00
[21:45:19] encavcodec: encoding with stored aspect 1/1
[21:45:20] sync: first pts video is 0
[21:45:20] sync: Chapter 1 at frame 1 time 0
[21:45:20] sync: first pts audio 0x1 is 1170
[21:46:14] reader: done. 1 scr changes
[21:46:15] work: average encoding speed for job is 167.486511 fps
[21:46:15] vfr: 9234 frames output, 0 dropped
[21:46:15] vfr: lost time: 0 (0 frames)
[21:46:15] vfr: gained time: 0 (0 frames) (0 not accounted for)
[21:46:15] opus-decoder done: 18469 frames, 0 decoder errors
[21:46:15] vp9-decoder done: 9234 frames, 0 decoder errors
[21:46:15] sync: got 9234 frames, 9234 expected
[21:46:15] sync: framerate min 25.000 fps, max 25.000 fps, avg 25.000 fps
[21:46:15] mux: track 0, 9234 frames, 440694469 bytes, 9544.01 kbps, fifo 256
[21:46:15] mux: track 1, 17315 frames, 7448000 bytes, 161.30 kbps, fifo 1024
[21:46:15] Finished work at: Sun Oct  5 21:46:15 2025

[21:46:15] libhb: work result = 0
